<?xml version="1.0" encoding="UTF-8"?>
<svg xmlns="http://www.w3.org/2000/svg" id="Layer_1" data-name="Layer 1" version="1.1" viewBox="0 0 1200 1200">
  <defs>
    <style>
      .cls-1 {
        fill: #fff;
        stroke-width: 0px;
      }
    </style>
  </defs>
  <path class="cls-1" d="M945.5,799.3c2.1,51.3-.8,76.8-11.2,141.2.6,17.4-3.6,29.4-22.1,42.1-22.1,15.2-33.8,7.2-52-1.5-54.9-26.4-108.8-54.4-155.5-92.5-19.3-15.8-38.7-20.7-63.5-21-74.8-1-149.9.2-224.2-14.7-110.5-22.1-209.1-66.4-291.2-140.7-58-52.4-87.4-114.5-71.7-189.2,8.5-40.1,30-74.6,59.2-104.1,19.9-20.1,41.2-39.4,64.5-56.1,147.8-105.9,315.4-162.7,506.5-153,145.5,7.3,275.6,54.3,378.1,156.7,51.5,51.5,83.2,113,87.2,183.1,2.3,40.2-9.3,78.2-33.3,112.1-43.9,62.1-87.4,113.4-170.9,137.5ZM887.9,950.3c0-6.1,0-8.9.1-11.8.8-48.5,1.3-97,2.4-145.5.5-21.1,4.4-25.2,25.5-30.5,4.1-1,8.1-2.3,12-3.9,58.6-24.7,107.2-60.5,142.7-110.5,26-36.7,37.5-77.6,26.7-121.3-12.4-50.1-35.2-96.8-75.4-134.5-99-92.9-220.8-134.3-357.2-137.7-151.2-3.7-288,37.1-411.9,113.1-45.1,27.7-87.3,58.7-118.4,100.4-54.6,73.5-45.3,148.2,26.6,211.7,92.2,81.3,202.9,124,326.8,135.7,50.6,4.8,101.6,4.4,152.4,7.6,19.2,1.2,39-.5,56.9,12.1,32,22.4,64.8,43.9,98.4,64.1,29.3,17.7,60,33.1,92.5,50.9Z"></path>
  <path class="cls-1" d="M394.7,546.8c-1.8-27.2-4.2-52.9-4.8-78.6-.2-6.5,3.6-17.2,8.4-18.8,10.8-3.4,15.9,6.4,18.3,14.7,5.7,19.2,10.3,38.6,15.4,58,1.4,5.2,2.7,10.4,4.1,16.2,25.2-3.5,49.3-6.8,74.1-10.3-.9-24.4-1.9-48.9-2.8-73.5-.1-3.5-.9-7.5.7-10.2,2.5-4.4,6.8-11.2,10.3-11.1,4.9.1,11.9,4.8,14.3,9.1,4.3,7.9,6.9,16.9,8.5,25.6,8.7,48.5,17.2,97,25.1,145.6,1.6,9.7.6,19.8-.4,29.6-1.2,11.1-6.6,20.6-20.2,20.9-13.7.3-20.4-9-22.3-20-3.6-21.1-5.8-42.3-8.6-63.5-.4-3.3-1-6.6-1.7-12-23.3,1.8-45.8,3.5-68.9,5.3,3.3,21.6,6.9,41.1,8.9,60.7.9,8.7.6,18.6-3.2,26-3.2,6.3-12.4,13.7-18.9,13.6-6.6-.1-16.1-7.8-19.4-14.2-4.7-9.2-5.4-20.1-6.8-30.4-2.3-16.7-3.9-33.4-5.9-51.3-8.1-.7-16,.1-22.6-2.3-.8-.3-1.7-.7-2.4-1.1-8.8-5.1-9-17.7-.3-22.3,0,0,0,0,.1,0,5.8-3,13-3.6,20.9-5.7Z"></path>
  <path class="cls-1" d="M763.9,558.5c-2.7,10.7-5.4,22.5-21.4,22.7-15.7.2-22.5-10.4-23.6-22.3-5.2-59.8-9.7-119.6-13.4-179.4,0-1.3.2-2.6.7-3.9,3.5-8.9,16.7-10.8,24.1-3.8,1.4,1.3,2.4,2.7,2.9,4.2,18.6,57.6,28.9,116.4,31.4,176.1,0,2-.4,3.9-.7,6.5Z"></path>
  <path class="cls-1" d="M605.3,489.6c.4-.4.8-.9,1.1-1.3,5.5-6.3,16.9-6.1,21.2,1.2.3.6.6,1.2.8,1.8,10,37.5,19.6,75.2,27.7,113.1,3,14.2-6.6,25.3-18.7,26.3-12.5,1.1-24.2-6.8-25.9-21.9-4.1-36.7-6.2-73.6-9.1-110.7-.2-3.1.8-6.1,2.9-8.4Z"></path>
  <path class="cls-1" d="M625.1,432.6c-11.9-2.6-23.7-18.1-21.6-28.3,2.6-12.4,15.3-20.1,28.5-17.4,14.5,3,23.9,15.1,21.3,27.4-2.5,11.9-16.4,20.9-28.2,18.3Z"></path>
  <path class="cls-1" d="M755,654.9c-11.9-2.6-23.7-18.1-21.6-28.3,2.6-12.4,15.3-20.1,28.5-17.4,14.5,3,23.9,15.1,21.3,27.4-2.5,11.9-16.4,20.9-28.2,18.3Z"></path>
</svg>
